<svg height="512pt" viewBox="0 -46 512.00076 512" width="512pt" xmlns="http://www.w3.org/2000/svg"><g fill-rule="evenodd"><path d="m204.5 409.976562c44.28125-123.78125-45.261719-152.882812-74.710938-190.683593-5.890624-7.5625-20.191406-68.4375-24.125-77.175781-5.695312-12.664063-19.039062-16.453126-27.945312-10.625l27.621094-93.089844c7.242187-28.871094-28.582032-38.746094-37.609375-15.453125l-46.132813 111.605469c-3.484375 8.429687-7.019531 16.640624-10.164062 24.488281-2.328125 5.707031-1.882813 19.007812 1.839844 31.929687l12.195312 42.347656c10.1875 35.371094 16.539062 38.371094 54.34375 75.347657l13.597656 13.296875c12.828125 12.542968 13.597656 17.078125 9.222656 34.839844l-13.097656 53.171874zm0 0" fill="#ffcbbd"/><path d="m154.140625 47.710938c-64.210937 64.210937 59.402344 176.425781 101.855469 187.800781 42.457031-11.375 166.070312-123.589844 101.859375-187.800781-23.632813-23.632813-62.308594-23.632813-85.941407 0-9.472656 9.472656-23.34375 8.488281-31.832031 0-23.632812-23.632813-62.308593-23.632813-85.941406 0zm0 0" fill="#d675a7"/><path d="m382.207031 219.292969c-29.449219 37.800781-118.992187 66.902343-74.710937 190.683593h114.964844l-13.09375-53.171874c-4.375-17.761719-3.605469-22.296876 9.222656-34.839844l13.59375-13.296875c37.808594-36.976563 44.160156-39.976563 54.347656-75.347657l12.195312-42.347656c3.71875-12.921875 4.167969-26.222656 1.839844-31.929687-3.144531-7.847657-6.679687-16.058594-10.164062-24.488281l-46.136719-111.605469c-9.027344-23.292969-44.851563-13.417969-37.609375 15.453125l27.621094 93.089844c-8.90625-5.828126-22.25-2.039063-27.945313 10.625-3.929687 8.742187-18.234375 69.613281-24.125 77.175781zm0 0" fill="#ffcbbd"/></g><path d="m315.199219 304.625c2.441406-4.953125.402343-10.949219-4.550781-13.390625-4.957032-2.441406-10.949219-.402344-13.390626 4.550781-16.074218 32.632813-15.804687 71.085938.820313 117.5625 1.464844 4.085938 5.3125 6.632813 9.417969 6.632813 1.117187 0 2.253906-.1875 3.367187-.585938 5.199219-1.859375 7.90625-7.585937 6.046875-12.785156-14.707031-41.109375-15.265625-74.46875-1.710937-101.984375zm0 0"/><path d="m509.84375 155.320312c-1.992188-4.972656-4.082031-9.953124-6.292969-15.222656-1.296875-3.085937-2.605469-6.207031-3.910156-9.363281l-46.09375-111.511719c-6.734375-17.210937-23.5625-21.984375-36.738281-17.796875-13.265625 4.214844-25.136719 18.347657-19.851563 39.410157.035157.136718.074219.273437.113281.410156l23.140626 77.988281c-9.652344 1.734375-18.398438 8.546875-23 18.777344-1.757813 3.90625-4.3125 13.097656-8.679688 29-3.988281 14.519531-11.394531 41.488281-14.320312 46.273437-3.066407 3.90625-7.285157 8.207032-13.269532 13.515625-4.128906 3.664063-4.507812 9.984375-.839844 14.117188 3.664063 4.128906 9.984376 4.507812 14.117188.839843 7.082031-6.285156 11.980469-11.320312 15.875-16.320312 4.355469-5.589844 8.960938-21.230469 17.722656-53.128906 3.011719-10.972656 6.429688-23.40625 7.636719-26.09375 2.738281-6.089844 7.933594-8.195313 11.652344-7.128906 4.601562 1.320312 6.707031 7.578124 5.503906 16.332031l-12.070313 87.738281c-.75 5.46875 3.074219 10.515625 8.546876 11.269531 5.460937.742188 10.515624-3.074219 11.269531-8.546875l12.066406-87.734375c2.167969-15.765625-2.640625-26.332031-9.441406-32.476562l-26.671875-89.890625c-2.765625-11.371094 4.3125-14.578125 6.558594-15.292969 3.996093-1.269531 9.550781-.4375 12.074218 6.078125.027344.066406.054688.136719.082032.203125l46.136718 111.605469c1.316406 3.1875 2.640625 6.34375 3.949219 9.460937 2.179687 5.199219 4.238281 10.105469 6.195313 14.980469 1.078124 2.644531 1.265624 13.386719-2.191407 25.390625l-12.191406 42.347656c-8.328125 28.921875-12.589844 33.042969-40.316406 59.875-3.453125 3.34375-7.242188 7.011719-11.414063 11.089844l-13.597656 13.296875c-16.011719 15.660156-16.96875 23.964844-11.9375 44.382812l13.097656 53.171876c1.121094 4.558593 5.207032 7.609374 9.703125 7.609374.789063 0 1.59375-.09375 2.398438-.292968 5.363281-1.320313 8.640625-6.738282 7.316406-12.101563l-13.097656-53.171875c-3.652344-14.832031-3.46875-15.542968 6.503906-25.300781l13.597656-13.296875c4.144531-4.050781 7.90625-7.695312 11.339844-11.015625 28.230469-27.320313 35.820313-34.664063 45.625-68.714844l12.191406-42.347656c3.539063-12.285156 5.375-28.945313 1.511719-38.414063zm0 0"/><path d="m162.609375 236.664062c-9.734375-8.15625-18.929687-15.863281-24.824219-23.378906-2.925781-4.785156-10.332031-31.75-14.320312-46.273437-4.367188-15.902344-6.921875-25.089844-8.679688-28.996094-4.601562-10.234375-13.34375-17.042969-23-18.777344l23.140625-77.988281c.039063-.136719.078125-.273438.113281-.414062 5.285157-21.0625-6.585937-35.191407-19.851562-39.410157-13.175781-4.183593-30.003906.585938-36.738281 17.800781l-46.09375 111.507813c-1.308594 3.160156-2.617188 6.289063-3.914063 9.378906-2.210937 5.265625-4.300781 10.242188-6.269531 15.152344-3.882813 9.523437-2.046875 26.183594 1.492187 38.472656l12.191407 42.351563c9.804687 34.046875 17.394531 41.386718 45.625 68.710937 3.433593 3.320313 7.195312 6.960938 11.339843 11.015625l13.597657 13.296875c9.976562 9.757813 10.15625 10.46875 6.503906 25.300781l-13.097656 53.171876c-1.320313 5.363281 1.953125 10.78125 7.316406 12.101562 5.367187 1.320312 10.78125-1.953125 12.101563-7.316406l13.097656-53.171875c5.03125-20.417969 4.074218-28.722657-11.9375-44.382813l-13.597656-13.296875c-4.171876-4.078125-7.960938-7.746093-11.414063-11.089843-27.726563-26.832032-31.988281-30.957032-40.316406-59.875l-12.191407-42.347657c-3.457031-12.003906-3.269531-22.75-2.171874-25.441406 1.933593-4.816406 3.992187-9.722656 6.171874-14.914063 1.308594-3.121093 2.636719-6.28125 3.953126-9.476562l46.136718-111.605469c.027344-.070312.054688-.136719.082032-.207031 2.523437-6.515625 8.082031-7.34375 12.074218-6.078125 2.246094.714844 9.324219 3.921875 6.558594 15.292969l-26.671875 89.890625c-6.800781 6.144531-11.609375 16.710937-9.441406 32.476562l12.066406 87.738281c.753906 5.472657 5.804687 9.296876 11.269531 8.542969 5.472656-.75 9.296875-5.796875 8.546875-11.269531l-12.070312-87.738281c-1.203125-8.753907.90625-15.011719 5.503906-16.332031 3.714844-1.066407 8.914063 1.039062 11.652344 7.132812 1.207031 2.683594 4.625 15.117188 7.636719 26.089844 8.761718 31.898437 13.367187 47.539062 17.722656 53.128906 7.191406 9.234375 17.230468 17.648438 27.859375 26.558594 36.289062 30.414062 77.421875 64.886718 45.324219 154.613281-1.859376 5.199219.847656 10.925781 6.046874 12.785156 1.113282.398438 2.25.585938 3.367188.585938 4.105469 0 7.953125-2.546875 9.417969-6.632813 16.226562-45.359375 16.882812-83.015625 2-115.117187-12.792969-27.605469-34.320313-45.648438-53.308594-61.566407zm0 0"/><path d="m382.789062 113.773438c7.640626-28.519532 1.464844-53.808594-17.859374-73.132813-27.59375-27.59375-72.492188-27.59375-100.085938 0-3.238281 3.238281-6.691406 3.875-9 3.808594-3.214844-.070313-6.304688-1.421875-8.6875-3.808594-12.417969-12.414063-28.964844-19.722656-46.597656-20.570313-5.519532-.28125-10.203125 3.988282-10.46875 9.503907-.265625 5.519531 3.988281 10.207031 9.507812 10.472656 12.652344.609375 24.519532 5.84375 33.414063 14.734375 6.050781 6.050781 14.007812 9.480469 22.402343 9.664062 8.757813.175782 17.152344-3.242187 23.570313-9.664062 9.542969-9.539062 22.292969-14.796875 35.898437-14.796875 13.609376 0 26.359376 5.257813 35.902344 14.796875 14.382813 14.386719 18.53125 31.988281 12.683594 53.816406-14.164062 52.867188-80.332031 106.890625-107.480469 116.449219-31.566406-10.957031-107.816406-77.039063-109.921875-132.148437-.210937-5.519532-4.859375-9.835938-10.375-9.613282-5.515625.210938-9.820312 4.859375-9.609375 10.375 1.515625 39.667969 32.621094 77.992188 51.027344 97.308594 25.84375 27.117188 56.507813 48.898438 76.300781 54.203125.847656.226563 1.71875.339844 2.589844.339844.867188 0 1.738281-.113281 2.585938-.339844 32.820312-8.796875 107.839843-70.332031 124.203124-131.398437zm0 0"/><path d="m154.140625 57.710938c2.558594 0 5.117187-.976563 7.070313-2.929688l.003906-.003906c3.90625-3.90625 3.902344-10.234375-.003906-14.140625-3.902344-3.90625-10.238282-3.902344-14.144532.003906-3.902344 3.902344-3.902344 10.234375 0 14.140625 1.957032 1.953125 4.515625 2.929688 7.074219 2.929688zm0 0"/><path d="m326.527344 256.871094c-3.902344 3.90625-3.902344 10.238281 0 14.144531 1.953125 1.949219 4.511718 2.925781 7.070312 2.925781s5.121094-.976562 7.074219-2.925781l.003906-.007813c3.902344-3.902343 3.902344-10.230468-.003906-14.136718s-10.238281-3.90625-14.144531 0zm0 0"/></svg>